<svg xmlns="http://www.w3.org/2000/svg" viewBox="0 0 512 512">
  <rect width="512" height="512" rx="96" fill="#1677ff"/>
  <g transform="translate(256,240)" fill="none" stroke="#fff" stroke-width="28" stroke-linecap="round" stroke-linejoin="round">
    <!-- Cup body -->
    <path d="M-80,-100 L-80,20 C-80,75 -40,110 0,110 C40,110 80,75 80,20 L80,-100 Z" fill="#fff" fill-opacity="0.15"/>
    <path d="M-80,-100 L-80,20 C-80,75 -40,110 0,110 C40,110 80,75 80,20 L80,-100 Z"/>
    <!-- Left handle -->
    <path d="M-80,-60 C-130,-60 -140,10 -90,40"/>
    <!-- Right handle -->
    <path d="M80,-60 C130,-60 140,10 90,40"/>
    <!-- Base stem -->
    <line x1="0" y1="110" x2="0" y2="150"/>
    <!-- Base -->
    <path d="M-55,150 L55,150 C55,150 50,170 0,170 C-50,170 -55,150 -55,150 Z" fill="#fff" fill-opacity="0.15"/>
    <path d="M-55,150 L55,150 C55,150 50,170 0,170 C-50,170 -55,150 -55,150 Z"/>
    <!-- Star -->
    <path d="M0,-50 L12,-20 L45,-20 L18,0 L28,35 L0,15 L-28,35 L-18,0 L-45,-20 L-12,-20 Z" fill="#faad14" stroke="#faad14" stroke-width="8"/>
  </g>
</svg>
